<?xml version="1.0" encoding="UTF-8"?><svg id="katman_2" xmlns="http://www.w3.org/2000/svg" viewBox="0 0 422.9 422.9"><defs><style>.cls-1{fill:#00cc5f;}.cls-2{fill:#fff;}.cls-3{fill:none;stroke:#00cc5f;stroke-miterlimit:10;stroke-width:10px;}</style></defs><g id="katman_1"><rect class="cls-3" x="5" y="5" width="412.9" height="412.9" rx="54.44" ry="54.44"/><path class="cls-2" d="M203.19,316.7c0-5.89,0-11.79,0-17.68,12.02-.25,21.21-.98,27.54-2.21,8.09-1.54,15.23-4.68,21.42-9.44,4.76-3.53,8.96-8.74,12.61-15.65,3.49-6.6,5.23-14.28,5.23-23.02,0-8.14-1.75-15.65-5.23-22.56-3.65-6.6-7.85-11.97-12.61-16.11-6.19-4.15-13.32-7.14-21.42-8.98-6.3-1.47-15.51-2.35-27.62-2.65-.02-15.95-.05-31.91-.08-47.86,21.12.47,37.59,2.5,49.39,6.09,13.6,4.28,25.37,10.87,35.33,19.74,7.75,6.58,14.7,15.76,20.87,27.55,6.8,11.63,10.35,26.56,10.67,44.77-.32,18.83-3.87,34.05-10.67,45.69-2.85,6.28-6.24,11.4-10.2,15.38-3.48,4.44-7.03,8.19-10.67,11.25-9.96,9.49-21.73,16.22-35.33,20.2-11.78,3.31-28.2,5.19-49.24,5.63,0-10.05,0-20.11,0-30.16Z"/><path class="cls-1" d="M227.64,123.9c-14.65.17-25.62,1.08-32.88,2.73-7.77,1.84-14.59,4.83-20.46,8.98-5.55,4.14-9.91,9.51-13.08,16.11-3.33,6.91-5,14.42-5,22.56,0,8.74,1.67,16.42,4.99,23.02,3.18,6.91,7.54,12.12,13.09,15.65,5.87,4.76,12.69,7.9,20.46,9.44,7.19,1.36,18.13,2.12,32.82,2.27,0,5.87,0,11.75,0,17.62,0,10.08,0,20.16.01,30.24-23.38-.24-41.55-2.14-54.51-5.7-13.59-3.97-25.05-10.69-34.38-20.15-8.22-6.28-15.57-15.16-22.05-26.64-6.17-11.64-9.4-26.88-9.72-45.71.31-18.22,3.54-33.15,9.67-44.79,6.45-11.79,13.76-20.98,21.94-27.56,9.34-8.88,20.83-15.47,34.44-19.75,13.01-3.86,31.26-5.92,54.74-6.17-.03,15.95-.05,31.9-.07,47.86Z"/></g></svg>