<?xml version="1.0" encoding="UTF-8"?><svg id="katman_2" xmlns="http://www.w3.org/2000/svg" viewBox="0 0 946.26 246.5"><defs><style>.cls-1{fill:#00cc5f;}.cls-2{fill:#fff;}.cls-3{fill:none;stroke:#00cc5f;stroke-miterlimit:10;stroke-width:10px;}</style></defs><g id="katman_1"><path class="cls-2" d="M290.52,31.8h36.01v19.63h.69c11.86-14.63,27.4-21.95,46.63-21.95,14.85,0,28.44,5.41,40.76,16.24,12.2,10.95,18.59,27.01,19.17,48.18v123.12h-36.01v-110.42c0-12.98-3.34-22.87-10.03-29.66-6.57-6.91-15.04-10.36-25.41-10.36s-18.9,3.45-25.59,10.36c-6.8,6.79-10.2,16.68-10.2,29.66v110.42h-36.01V31.8Z"/><path class="cls-2" d="M603,131.8c-4.44,0-8.87,0-13.31,0-.19,9.04-.74,15.96-1.66,20.73-1.16,6.09-3.52,11.46-7.1,16.12-2.65,3.58-6.58,6.74-11.78,9.49-4.97,2.63-10.74,3.94-17.32,3.94-6.12,0-11.78-1.31-16.98-3.94-4.97-2.74-9.01-5.91-12.12-9.49-3.12-4.66-5.37-10.03-6.76-16.12-1.1-4.74-1.76-11.67-1.99-20.79-12.01-.02-24.01-.04-36.02-.06.35,15.89,1.88,28.28,4.58,37.17,3.22,10.23,8.18,19.09,14.86,26.59,4.95,5.83,11.86,11.06,20.73,15.7,8.75,5.12,19.99,7.79,33.69,8.03,14.17-.24,25.63-2.91,34.38-8.03,4.72-2.14,8.58-4.7,11.58-7.67,3.34-2.62,6.16-5.29,8.47-8.03,7.14-7.49,12.21-16.36,15.2-26.59,2.49-8.86,3.91-21.22,4.24-37.05-7.57,0-15.13,0-22.7,0Z"/><path class="cls-1" d="M513.92,120.33c.13-11.03.81-19.28,2.06-24.74,1.38-5.85,3.64-10.98,6.76-15.4,3.12-4.18,7.16-7.46,12.12-9.85,5.2-2.51,10.85-3.76,16.98-3.76,6.58,0,12.35,1.25,17.32,3.76,5.2,2.39,9.12,5.67,11.78,9.85,3.58,4.42,5.95,9.55,7.1,15.4,1.03,5.41,1.59,13.64,1.71,24.7,4.42,0,8.84,0,13.26,0,7.58,0,15.17,0,22.75,0-.18-17.59-1.61-31.27-4.29-41.02-2.99-10.23-8.04-18.85-15.16-25.87-4.73-6.18-11.41-11.72-20.05-16.59-8.76-4.64-20.22-7.08-34.4-7.32-13.71.24-24.95,2.66-33.71,7.28-8.87,4.85-15.79,10.36-20.74,16.51-6.68,7.03-11.64,15.67-14.86,25.92-2.9,9.79-4.45,23.52-4.65,41.19,12-.02,24.01-.04,36.01-.05Z"/><path class="cls-2" d="M669.53,31.8h36.01v19.63h.75c11.87-14.63,27.43-21.95,46.68-21.95,14.41.24,26.97,4.98,37.69,14.22l-26.3,32.18c-7.61-6.2-15.52-9.3-23.7-9.3-9.23,0-17.13,3.1-23.7,9.29-7.38,6.08-11.19,15.9-11.42,29.48v111.67h-36.01V31.8Z"/><path class="cls-2" d="M803,31.8h36.01v19.63h.69c11.86-14.63,27.4-21.95,46.63-21.95,14.85,0,28.44,5.41,40.76,16.24,12.2,10.95,18.59,27.01,19.17,48.18v123.12h-36.01v-110.42c0-12.98-3.34-22.87-10.03-29.66-6.57-6.91-15.04-10.36-25.41-10.36s-18.9,3.45-25.59,10.36c-6.8,6.79-10.2,16.68-10.2,29.66v110.42h-36.01V31.8Z"/><rect class="cls-3" x="5" y="5" width="236.5" height="236.5" rx="54.44" ry="54.44"/><path class="cls-2" d="M118.52,183.54c0-3.38,0-6.75,0-10.13,6.88-.14,12.15-.56,15.78-1.26,4.64-.88,8.72-2.68,12.27-5.41,2.73-2.02,5.13-5.01,7.22-8.96,2-3.78,3-8.18,3-13.19,0-4.66-1-8.97-3-12.92-2.09-3.78-4.5-6.85-7.22-9.23-3.54-2.38-7.63-4.09-12.27-5.14-3.61-.84-8.89-1.34-15.82-1.52-.01-9.14-.03-18.28-.05-27.42,12.1.27,21.53,1.43,28.29,3.49,7.79,2.45,14.53,6.22,20.24,11.31,4.44,3.77,8.42,9.03,11.95,15.78,3.89,6.66,5.93,15.21,6.11,25.64-.18,10.78-2.22,19.51-6.11,26.17-1.63,3.59-3.58,6.53-5.84,8.81-1.99,2.54-4.03,4.69-6.11,6.45-5.7,5.44-12.45,9.29-20.24,11.57-6.75,1.9-16.15,2.97-28.2,3.23,0-5.76,0-11.52,0-17.28Z"/><path class="cls-1" d="M132.52,73.1c-8.39.1-14.67.62-18.83,1.57-4.45,1.05-8.36,2.77-11.72,5.14-3.18,2.37-5.68,5.45-7.49,9.23-1.91,3.96-2.86,8.26-2.86,12.92,0,5.01.95,9.4,2.86,13.19,1.82,3.96,4.32,6.94,7.5,8.96,3.36,2.73,7.27,4.53,11.72,5.41,4.12.78,10.38,1.21,18.8,1.3,0,3.36,0,6.73,0,10.09,0,5.77,0,11.55,0,17.32-13.39-.14-23.8-1.23-31.22-3.26-7.79-2.27-14.35-6.12-19.69-11.54-4.71-3.6-8.92-8.68-12.63-15.26-3.53-6.67-5.39-15.39-5.57-26.18.18-10.44,2.03-18.99,5.54-25.66,3.69-6.75,7.88-12.02,12.57-15.79,5.35-5.09,11.93-8.86,19.73-11.31,7.45-2.21,17.9-3.39,31.35-3.54-.02,9.14-.03,18.27-.04,27.41Z"/></g></svg>